<?xml version="1.0" encoding="UTF-8" standalone="no"?>
<svg
   width="39.675098mm"
   height="104.27064mm"
   viewBox="0 0 39.675098 104.27064"
   version="1.1"
   >
  <g
     transform="translate(-86.019554,-58.032633)">
    <path
       d="m 94.572523,58.032633 31.122127,8.55245 -14.4756,8.234638 c 5.81924,11.004841 8.69175,22.458582 10.1415,33.839279 1.81552,13.47801 1.57616,27.51604 -5.35471,41.13341 -1.58021,3.10296 -3.61373,6.24356 -6.45284,9.27798 -0.70371,0.75161 -1.49649,1.52256 -2.41535,2.29702 -0.23167,0.19521 -0.49044,0.40378 -0.78083,0.62322 -0.0785,0.0597 -0.16832,0.12632 -0.27027,0.19999 l -0.154,0.11265 -9.148793,-4.00131 0.0894,-0.0584 c 0.007,-0.004 0.02228,-0.0155 0.04857,-0.0346 0.123621,-0.0923 0.259794,-0.20319 0.412895,-0.33073 0.607899,-0.50626 1.181468,-1.07062 1.756997,-1.67742 2.328481,-2.45299 4.049011,-5.15919 5.513881,-7.97419 6.46189,-12.41085 6.55496,-25.67394 4.91598,-38.80952 -1.30807,-9.888781 -3.61235,-19.707408 -7.99176,-29.085561 l -15.510171,8.823235 z" />
  </g>
</svg>
