<?xml version="1.0" encoding="utf-8"?>
<!-- Generator: Adobe Illustrator 26.0.1, SVG Export Plug-In . SVG Version: 6.00 Build 0)  -->
<svg version="1.1" id="Ebene_1" xmlns="http://www.w3.org/2000/svg" xmlns:xlink="http://www.w3.org/1999/xlink" x="0px" y="0px"
	 viewBox="0 0 599.6 122.6" style="enable-background:new 0 0 599.6 122.6;" xml:space="preserve">
<style type="text/css">
	.st0{fill:#FFFFFF;}
	.st1{fill:#009EE0;}
	.st2{fill:#747577;}
	.st3{fill:#CBD300;}
</style>
<polygon class="st0" points="18.6,62.3 40.1,99.5 61.4,62.3 40.1,25.2 "/>
<g>
	<path class="st1" d="M61.5,65.3L41.7,99.9c-1.1,1.8-3.1,2-4.4-0.2L17.5,65.5c-1.7-2.8-1.7-4.3-0.1-7.2l20.3-35.1
		c0.8-1.5,2.7-1.7,3.9,0.3l20.2,34.8C63,60.5,62.8,63,61.5,65.3"/>
	<path class="st2" d="M98,106.5l20.5-35.4c1.2-2.2,0-4.1-2.8-4.1l-39.1,0c-2.8,0-4.5,0.8-5.8,3.2l-20.2,35.1c-1.2,2-0.2,3.6,2,3.6
		l40.6-0.1C95.5,108.7,97,108.1,98,106.5"/>
	<path class="st3" d="M97.1,17.1l20.5,35.4c1.2,2.2,0,4.1-2.8,4.1l-39.1,0c-2.8,0-4.5-0.8-5.8-3.2L49.7,18.4c-1.2-2-0.2-3.6,2-3.6
		l40.6,0.1C94.6,14.9,96.2,15.5,97.1,17.1"/>
</g>
<g>
	<path class="st0" d="M175.7,73.2c-0.4-0.9-0.9-2.1-1.5-3.6c-0.7-1.5-1.4-3.1-2.3-4.8c-0.8-1.7-1.7-3.5-2.5-5.4
		c-0.9-1.9-1.7-3.6-2.5-5.2c-0.8-1.6-1.5-3-2.1-4.3c-0.6-1.2-1.1-2.1-1.4-2.6c-0.5,4.5-0.8,9.4-1.1,14.7c-0.3,5.3-0.5,10.8-0.7,16.6
		H158c0.3-6.8,0.7-13.3,1.1-19.5c0.4-6.2,0.9-12.2,1.5-17.9h3.2c1.1,1.8,2.2,3.9,3.5,6.2s2.4,4.8,3.7,7.3s2.4,5,3.5,7.5
		c1.1,2.5,2.1,4.7,3,6.7c0.9-2,1.9-4.2,3-6.7c1.1-2.5,2.3-5,3.5-7.5s2.4-5,3.7-7.3s2.4-4.4,3.5-6.2h3.1c0.6,5.7,1.1,11.6,1.5,17.9
		c0.4,6.2,0.8,12.7,1.1,19.5h-3.7c-0.2-5.8-0.5-11.3-0.7-16.6c-0.3-5.3-0.6-10.2-1.1-14.7c-0.3,0.5-0.7,1.4-1.3,2.6
		c-0.6,1.2-1.3,2.6-2.1,4.3c-0.8,1.6-1.6,3.4-2.5,5.2c-0.9,1.9-1.7,3.7-2.5,5.4c-0.8,1.7-1.6,3.4-2.2,4.8c-0.7,1.5-1.2,2.7-1.5,3.6
		H175.7z"/>
	<path class="st0" d="M213.9,50.1c1.8,0,3.4,0.3,4.7,0.8c1.3,0.5,2.3,1.2,3.1,2.2c0.8,0.9,1.4,2,1.7,3.3c0.4,1.3,0.5,2.6,0.5,4.1V78
		c-0.4,0.1-0.9,0.2-1.6,0.4s-1.5,0.3-2.4,0.4c-0.9,0.1-1.9,0.3-3,0.4c-1.1,0.1-2.2,0.1-3.4,0.1c-1.5,0-2.8-0.2-4.1-0.5
		c-1.2-0.3-2.3-0.8-3.2-1.5s-1.6-1.6-2.2-2.7c-0.5-1.1-0.8-2.4-0.8-4c0-1.5,0.3-2.8,0.9-3.9c0.6-1.1,1.4-2,2.4-2.7
		c1-0.7,2.3-1.2,3.7-1.5c1.4-0.3,3-0.5,4.7-0.5c0.5,0,1,0,1.6,0.1c0.6,0.1,1.1,0.1,1.6,0.2c0.5,0.1,1,0.2,1.3,0.3s0.6,0.2,0.8,0.2
		V61c0-1-0.1-1.9-0.2-2.8c-0.1-0.9-0.5-1.7-0.9-2.5s-1.2-1.3-2.1-1.8c-0.9-0.5-2-0.7-3.5-0.7c-2.1,0-3.6,0.1-4.6,0.4
		s-1.7,0.5-2.2,0.7l-0.5-3.1c0.6-0.3,1.6-0.6,2.8-0.8C210.5,50.2,212.1,50.1,213.9,50.1z M214.2,76.1c1.4,0,2.6,0,3.6-0.1
		s1.9-0.2,2.6-0.4v-9.8c-0.4-0.2-1-0.4-1.9-0.6c-0.9-0.2-2.1-0.3-3.6-0.3c-0.9,0-1.8,0.1-2.7,0.2c-0.9,0.1-1.8,0.4-2.6,0.8
		s-1.4,1-1.9,1.7s-0.8,1.7-0.8,2.9c0,1,0.2,1.9,0.5,2.6c0.3,0.7,0.8,1.3,1.5,1.7c0.6,0.4,1.4,0.7,2.3,0.9
		C212.1,76,213.1,76.1,214.2,76.1z"/>
	<path class="st0" d="M236.4,88.6h-3.5V51.7c1-0.4,2.4-0.7,4-1c1.6-0.3,3.7-0.5,6.2-0.5c2.1,0,3.9,0.3,5.6,1
		c1.7,0.7,3.1,1.6,4.3,2.9c1.2,1.3,2.1,2.8,2.8,4.6c0.7,1.8,1,3.8,1,6.1c0,2.1-0.3,4.1-0.8,5.9c-0.6,1.8-1.4,3.3-2.5,4.6
		c-1.1,1.3-2.4,2.3-4,3s-3.4,1.1-5.4,1.1c-1.8,0-3.4-0.3-4.8-0.8c-1.3-0.5-2.3-1-2.9-1.5V88.6z M236.4,73.6c0.3,0.3,0.7,0.5,1.2,0.8
		s1.1,0.6,1.7,0.8c0.6,0.3,1.3,0.5,2.1,0.6s1.5,0.2,2.4,0.2c1.7,0,3.2-0.3,4.3-0.9c1.2-0.6,2.1-1.4,2.8-2.4c0.7-1,1.2-2.2,1.6-3.6
		s0.5-2.9,0.5-4.4c0-3.7-0.9-6.5-2.8-8.5c-1.8-2-4.3-2.9-7.3-2.9c-1.7,0-3.1,0.1-4.2,0.2s-1.9,0.3-2.4,0.5V73.6z"/>
	<path class="st0" d="M280.1,79.4c-2.4,0-4.7-0.4-6.7-1.3c-2.1-0.9-3.9-2.1-5.4-3.8c-1.5-1.7-2.7-3.7-3.6-6.1
		c-0.9-2.4-1.3-5.2-1.3-8.3s0.5-5.9,1.4-8.3c1-2.4,2.2-4.5,3.8-6.1c1.6-1.7,3.4-2.9,5.5-3.8s4.3-1.3,6.5-1.3c1.4,0,2.7,0.1,3.8,0.3
		c1.2,0.2,2.2,0.4,3,0.7c0.9,0.3,1.6,0.5,2.2,0.8c0.6,0.3,1.1,0.5,1.4,0.7l-1.2,3.2c-0.9-0.5-2-1.1-3.4-1.6
		c-1.4-0.5-3.1-0.8-5.2-0.8c-2.3,0-4.4,0.4-6.1,1.2c-1.7,0.8-3.2,1.9-4.4,3.3c-1.2,1.4-2.1,3.2-2.7,5.1c-0.6,2-0.9,4.2-0.9,6.6
		c0,2.5,0.3,4.7,0.9,6.7s1.5,3.7,2.6,5.1c1.2,1.4,2.6,2.5,4.2,3.2c1.7,0.8,3.6,1.1,5.8,1.1c2.4,0,4.4-0.2,6-0.7
		c1.6-0.4,2.8-0.9,3.6-1.4l1,3.1c-0.3,0.2-0.7,0.4-1.3,0.6c-0.6,0.2-1.4,0.5-2.3,0.7c-0.9,0.3-2,0.5-3.2,0.6
		C283,79.4,281.6,79.4,280.1,79.4z"/>
	<path class="st0" d="M321.1,64.7c0,2.2-0.3,4.2-0.9,6c-0.6,1.8-1.5,3.3-2.6,4.6s-2.5,2.2-4,2.9s-3.3,1.1-5.1,1.1
		c-1.9,0-3.6-0.4-5.1-1.1s-2.9-1.7-4-2.9c-1.1-1.3-2-2.8-2.6-4.6c-0.6-1.8-0.9-3.8-0.9-6c0-2.2,0.3-4.2,0.9-6
		c0.6-1.8,1.5-3.3,2.6-4.6c1.1-1.3,2.5-2.3,4-3s3.3-1.1,5.1-1.1c1.9,0,3.6,0.4,5.1,1.1s2.9,1.7,4,3c1.1,1.3,2,2.8,2.6,4.6
		C320.7,60.5,321.1,62.5,321.1,64.7z M317.3,64.7c0-3.5-0.8-6.3-2.4-8.3c-1.6-2.1-3.8-3.1-6.6-3.1c-2.8,0-5,1-6.6,3.1
		c-1.6,2.1-2.4,4.9-2.4,8.3c0,3.5,0.8,6.3,2.4,8.3s3.8,3.1,6.6,3.1c2.8,0,5-1,6.6-3.1S317.3,68.2,317.3,64.7z"/>
	<path class="st0" d="M328.7,51.7c1-0.3,2.4-0.6,4.1-1c1.7-0.4,3.8-0.5,6.5-0.5c3.5,0,6.1,1,7.7,3.1c0.2-0.1,0.5-0.4,1.1-0.7
		c0.5-0.3,1.2-0.7,2-1.1c0.8-0.4,1.7-0.7,2.8-0.9c1.1-0.3,2.2-0.4,3.5-0.4c2.1,0,3.8,0.3,5.2,0.9s2.3,1.5,3.1,2.6
		c0.7,1.1,1.2,2.5,1.5,4.1c0.3,1.6,0.4,3.3,0.4,5.2v15.6h-3.5V64.2c0-1.8-0.1-3.4-0.2-4.8s-0.5-2.5-1-3.3c-0.5-0.9-1.2-1.5-2.1-2
		s-2.1-0.7-3.5-0.7c-1.1,0-2.1,0.1-2.9,0.3c-0.9,0.2-1.6,0.4-2.3,0.7c-0.6,0.3-1.2,0.6-1.6,0.9s-0.7,0.5-0.9,0.6
		c0.3,0.9,0.6,2,0.7,3.2c0.2,1.2,0.2,2.4,0.2,3.7v15.9h-3.5V64.2c0-1.8-0.1-3.4-0.2-4.8s-0.5-2.5-1-3.3s-1.2-1.5-2.1-2
		s-2.1-0.7-3.6-0.7c-1.7,0-3.1,0.1-4.3,0.3c-1.2,0.2-1.9,0.3-2.2,0.5v24.5h-3.5V51.7z"/>
	<path class="st0" d="M378.8,88.6h-3.5V51.7c1-0.4,2.4-0.7,4-1c1.6-0.3,3.7-0.5,6.2-0.5c2.1,0,3.9,0.3,5.6,1
		c1.7,0.7,3.1,1.6,4.3,2.9c1.2,1.3,2.1,2.8,2.8,4.6c0.7,1.8,1,3.8,1,6.1c0,2.1-0.3,4.1-0.8,5.9c-0.6,1.8-1.4,3.3-2.5,4.6
		c-1.1,1.3-2.4,2.3-4,3s-3.4,1.1-5.4,1.1c-1.8,0-3.4-0.3-4.8-0.8c-1.3-0.5-2.3-1-2.9-1.5V88.6z M378.8,73.6c0.3,0.3,0.7,0.5,1.2,0.8
		s1.1,0.6,1.7,0.8c0.6,0.3,1.3,0.5,2.1,0.6c0.8,0.2,1.5,0.2,2.4,0.2c1.7,0,3.2-0.3,4.3-0.9c1.2-0.6,2.1-1.4,2.8-2.4
		c0.7-1,1.2-2.2,1.6-3.6s0.5-2.9,0.5-4.4c0-3.7-0.9-6.5-2.8-8.5c-1.8-2-4.3-2.9-7.3-2.9c-1.7,0-3.1,0.1-4.2,0.2s-1.9,0.3-2.4,0.5
		V73.6z"/>
	<path class="st0" d="M430.6,64.7c0,2.2-0.3,4.2-0.9,6c-0.6,1.8-1.5,3.3-2.6,4.6s-2.5,2.2-4,2.9s-3.3,1.1-5.1,1.1
		c-1.9,0-3.6-0.4-5.1-1.1s-2.9-1.7-4-2.9c-1.1-1.3-2-2.8-2.6-4.6c-0.6-1.8-0.9-3.8-0.9-6c0-2.2,0.3-4.2,0.9-6
		c0.6-1.8,1.5-3.3,2.6-4.6c1.1-1.3,2.5-2.3,4-3s3.3-1.1,5.1-1.1c1.9,0,3.6,0.4,5.1,1.1s2.9,1.7,4,3c1.1,1.3,2,2.8,2.6,4.6
		C430.3,60.5,430.6,62.5,430.6,64.7z M426.8,64.7c0-3.5-0.8-6.3-2.4-8.3c-1.6-2.1-3.8-3.1-6.6-3.1c-2.8,0-5,1-6.6,3.1
		c-1.6,2.1-2.4,4.9-2.4,8.3c0,3.5,0.8,6.3,2.4,8.3s3.8,3.1,6.6,3.1c2.8,0,5-1,6.6-3.1S426.8,68.2,426.8,64.7z"/>
	<path class="st0" d="M438.2,51.7c1-0.3,2.4-0.6,4.2-1c1.8-0.4,3.9-0.5,6.5-0.5c2.1,0,3.9,0.3,5.3,0.9c1.4,0.6,2.6,1.5,3.4,2.6
		s1.4,2.5,1.8,4.1c0.4,1.6,0.5,3.3,0.5,5.2v15.6h-3.5V64.2c0-2-0.1-3.7-0.4-5c-0.3-1.4-0.7-2.5-1.4-3.3s-1.5-1.5-2.5-1.9
		c-1-0.4-2.3-0.6-3.9-0.6c-1.7,0-3.1,0.1-4.3,0.3c-1.2,0.2-2,0.3-2.3,0.5v24.5h-3.5V51.7z"/>
	<path class="st0" d="M467.2,64.6c0-2.4,0.4-4.6,1.1-6.4c0.7-1.8,1.6-3.3,2.8-4.6c1.1-1.2,2.4-2.1,3.9-2.7s3-0.9,4.5-0.9
		c3.4,0,6.1,1.1,8.2,3.3c2,2.2,3.1,5.7,3.1,10.3c0,0.3,0,0.6,0,0.9c0,0.3,0,0.6-0.1,0.8H471c0.1,3.4,1,6,2.5,7.9
		c1.6,1.8,4.1,2.8,7.6,2.8c1.9,0,3.4-0.2,4.5-0.5c1.1-0.4,1.9-0.7,2.4-0.9l0.6,3c-0.5,0.3-1.5,0.6-2.8,1c-1.4,0.4-3,0.6-4.9,0.6
		c-2.4,0-4.5-0.4-6.3-1.1c-1.7-0.7-3.2-1.7-4.3-3c-1.1-1.3-1.9-2.8-2.4-4.6S467.2,66.8,467.2,64.6z M487.1,62.4
		c-0.1-2.9-0.8-5.2-2.1-6.8s-3.1-2.4-5.5-2.4c-1.3,0-2.4,0.3-3.4,0.8s-1.9,1.2-2.6,2c-0.7,0.8-1.3,1.8-1.7,2.9
		c-0.4,1.1-0.7,2.3-0.7,3.5H487.1z"/>
	<path class="st0" d="M498.5,51.7c1-0.3,2.4-0.6,4.2-1c1.8-0.4,3.9-0.5,6.5-0.5c2.1,0,3.9,0.3,5.3,0.9c1.4,0.6,2.6,1.5,3.4,2.6
		s1.4,2.5,1.8,4.1c0.4,1.6,0.5,3.3,0.5,5.2v15.6h-3.5V64.2c0-2-0.1-3.7-0.4-5c-0.3-1.4-0.7-2.5-1.4-3.3s-1.5-1.5-2.5-1.9
		c-1-0.4-2.3-0.6-3.9-0.6c-1.7,0-3.1,0.1-4.3,0.3c-1.2,0.2-2,0.3-2.3,0.5v24.5h-3.5V51.7z"/>
	<path class="st0" d="M532.5,50.7h11.1v3h-11.1v14.9c0,1.6,0.1,2.9,0.4,3.9c0.3,1,0.7,1.8,1.2,2.3c0.5,0.5,1.1,0.9,1.8,1.1
		c0.7,0.2,1.5,0.3,2.4,0.3c1.5,0,2.7-0.2,3.6-0.5c0.9-0.3,1.6-0.7,2.1-0.9l0.9,2.9c-0.5,0.3-1.4,0.7-2.6,1.1
		c-1.3,0.4-2.6,0.6-4.1,0.6c-1.7,0-3.2-0.2-4.3-0.7c-1.2-0.4-2.1-1.1-2.8-2.1s-1.2-2.1-1.5-3.4c-0.3-1.4-0.4-3-0.4-4.9V42.5l3.5-0.6
		V50.7z"/>
	<path class="st0" d="M555.8,76.1c2,0,3.7-0.3,5-1c1.3-0.7,2-1.8,2-3.4c0-0.8-0.1-1.4-0.4-1.9c-0.2-0.5-0.6-1-1.2-1.5
		c-0.5-0.4-1.3-0.8-2.1-1.2c-0.9-0.4-2-0.9-3.3-1.4c-1-0.4-2-0.9-3-1.3c-0.9-0.5-1.8-1-2.5-1.6c-0.7-0.6-1.3-1.3-1.7-2.1
		c-0.4-0.8-0.6-1.8-0.6-3c0-2.3,0.9-4.1,2.6-5.5c1.7-1.4,4.1-2.1,7-2.1c1.9,0,3.5,0.2,4.7,0.5s2.1,0.6,2.6,0.9l-0.8,3.1
		c-0.4-0.2-1.2-0.5-2.2-0.9c-1-0.4-2.5-0.5-4.5-0.5c-0.8,0-1.5,0.1-2.2,0.2s-1.3,0.4-1.9,0.8c-0.5,0.3-1,0.8-1.3,1.3
		c-0.3,0.5-0.5,1.2-0.5,1.9s0.1,1.4,0.4,1.9c0.3,0.5,0.7,1,1.3,1.4c0.6,0.4,1.2,0.8,2.1,1.2c0.8,0.4,1.7,0.8,2.8,1.2
		c1.1,0.4,2.1,0.9,3.1,1.3c1,0.4,1.9,1,2.6,1.6c0.8,0.6,1.4,1.4,1.8,2.3c0.5,0.9,0.7,2,0.7,3.3c0,2.5-0.9,4.4-2.8,5.7
		c-1.9,1.3-4.5,1.9-7.7,1.9c-2.4,0-4.3-0.2-5.6-0.6c-1.3-0.4-2.2-0.7-2.6-0.9l0.9-3.2c0.1,0.1,0.3,0.2,0.7,0.4
		c0.4,0.2,0.8,0.3,1.5,0.5c0.6,0.2,1.3,0.4,2.2,0.5C553.7,76.1,554.7,76.1,555.8,76.1z"/>
</g>
</svg>
