{
    "asset" : {
        "generator" : "Khronos glTF Blender I/O v1.1.46",
        "version" : "2.0"
    },
    "scene" : 0,
    "scenes" : [
        {
            "name" : "Scene",
            "nodes" : [
                0,
                1
            ]
        }
    ],
    "nodes" : [
        {
            "name" : "Light",
            "rotation" : [
                0.16907575726509094,
                0.7558803558349609,
                -0.27217137813568115,
                0.570947527885437
            ],
            "translation" : [
                4.076245307922363,
                5.903861999511719,
                -1.0054539442062378
            ]
        },
        {
            "mesh" : 0,
            "name" : "Post-Tower"
        }
    ],
    "meshes" : [
        {
            "name" : "Post-Tower",
            "primitives" : [
                {
                    "attributes" : {
                        "POSITION" : 0,
                        "NORMAL" : 1
                    },
                    "indices" : 2
                }
            ]
        }
    ],
    "accessors" : [
        {
            "bufferView" : 0,
            "componentType" : 5126,
            "count" : 7668,
            "max" : [
                51.166099548339844,
                167.5,
                40.47779846191406
            ],
            "min" : [
                -21.25,
                0,
                -35.349998474121094
            ],
            "type" : "VEC3"
        },
        {
            "bufferView" : 1,
            "componentType" : 5126,
            "count" : 7668,
            "type" : "VEC3"
        },
        {
            "bufferView" : 2,
            "componentType" : 5123,
            "count" : 12570,
            "type" : "SCALAR"
        }
    ],
    "bufferViews" : [
        {
            "buffer" : 0,
            "byteLength" : 92016,
            "byteOffset" : 0
        },
        {
            "buffer" : 0,
            "byteLength" : 92016,
            "byteOffset" : 92016
        },
        {
            "buffer" : 0,
            "byteLength" : 25140,
            "byteOffset" : 184032
        }
    ],
    "buffers" : [
        {
            "byteLength" : 209172,
            "uri" : "data:application/octet-stream;base64,"
        }
    ]
}
