<svg id="bran_icon" data-name="bran icon" xmlns="http://www.w3.org/2000/svg" width="90.603" height="82.827" viewBox="0 0 90.603 82.827">
  <path id="Path_1" data-name="Path 1" d="M651.258,555.3,633.75,585.75c-1.009,1.619-2.725,1.789-3.9-.17l-17.423-30.126c-1.475-2.482-1.521-3.766-.083-6.384l17.873-30.959c.721-1.3,2.4-1.509,3.432.241l17.79,30.673a6.285,6.285,0,0,1-.182,6.272" transform="translate(-611.294 -510.773)" fill="#009fe3"/>
  <path id="Path_2" data-name="Path 2" d="M668.259,571.555l18.116-31.248c1.076-1.919-.04-3.63-2.476-3.63l-34.484-.026c-2.451.022-3.928.664-5.12,2.788L626.479,570.35c-1.046,1.748-.219,3.15,1.769,3.179l35.791-.065c2.052.006,3.4-.555,4.22-1.908" transform="translate(-596.181 -490.701)" fill="#757474"/>
  <path id="Path_3" data-name="Path 3" d="M667.883,515.943,686,547.192c1.076,1.919-.041,3.63-2.476,3.63l-34.484.026c-2.451-.022-3.928-.665-5.12-2.788L626.1,517.149c-1.045-1.748-.219-3.15,1.769-3.179l35.791.065c2.052-.006,3.4.555,4.22,1.908" transform="translate(-596.567 -513.97)" fill="#cad400"/>
</svg>
