<?xml version="1.0" encoding="UTF-8" standalone="no"?>
<svg
   width="39.675098mm"
   height="104.27064mm"
   viewBox="0 0 39.675098 104.27064"
   version="1.1"
   >
  <g
     transform="translate(-86.019554,-58.032633)">
    <path
       style="stroke-width:0.744756"
       d="m 442.74023,219.33594 -117.62695,32.32422 54.71094,31.12304 c -21.99397,41.5931 -32.8507,84.88283 -38.33008,127.89649 -6.86182,50.94051 -5.95715,103.99765 20.23828,155.46484 5.97246,11.72776 13.65817,23.59773 24.38867,35.06641 2.6597,2.84073 5.65602,5.75455 9.12891,8.68164 0.87557,0.7378 1.85363,1.52609 2.95117,2.35547 0.29669,0.22563 0.63616,0.47742 1.02149,0.75586 l 0.58203,0.42578 34.57812,-15.12305 -0.33789,-0.2207 c -0.0265,-0.0151 -0.0842,-0.0587 -0.18359,-0.13086 -0.46723,-0.34885 -0.9819,-0.76796 -1.56055,-1.25 -2.29757,-1.91343 -4.46539,-4.04643 -6.64062,-6.33985 -8.80052,-9.27114 -15.30333,-19.4993 -20.83985,-30.13867 -24.42289,-46.90715 -24.77465,-97.03535 -18.58008,-146.68164 4.94388,-37.37493 13.65299,-74.4847 30.20508,-109.92969 l 58.6211,33.34766 z"
       transform="scale(0.26458333)" />
  </g>
</svg>
